<svg width="623" height="231" viewBox="0 0 623 231" fill="none" xmlns="http://www.w3.org/2000/svg">
<path d="M590.431 165.166L512.142 203.854C472.72 223.335 428.883 232.151 384.995 229.425L43.9727 208.244C19.8222 206.744 1.00327 186.72 1.00327 162.523V68.8869C1.00327 44.6899 19.8222 24.6658 43.9727 23.1658L384.995 1.98431C428.883 -0.741676 472.72 8.07461 512.142 27.5556L590.431 66.2433C631.403 86.4902 631.403 144.919 590.431 165.166Z" stroke="#001048" stroke-width="2"/>
<circle cx="575.362" cy="141.862" r="9.36185" transform="rotate(90 575.362 141.862)" stroke="#001048" stroke-width="2"/>
<circle cx="525.362" cy="161.862" r="9.36185" transform="rotate(90 525.362 161.862)" stroke="#001048" stroke-width="2"/>
<circle cx="473.362" cy="148.862" r="9.36185" transform="rotate(90 473.362 148.862)" stroke="#001048" stroke-width="2"/>
<circle cx="482.362" cy="186.862" r="9.36185" transform="rotate(90 482.362 186.862)" stroke="#001048" stroke-width="2"/>
<circle cx="419.362" cy="141.862" r="9.36185" transform="rotate(90 419.362 141.862)" stroke="#001048" stroke-width="2"/>
<circle cx="429.362" cy="183.862" r="9.36185" transform="rotate(90 429.362 183.862)" stroke="#001048" stroke-width="2"/>
<circle cx="375.362" cy="161.862" r="9.36185" transform="rotate(90 375.362 161.862)" stroke="#001048" stroke-width="2"/>
<circle cx="338.362" cy="196.862" r="9.36185" transform="rotate(90 338.362 196.862)" stroke="#001048" stroke-width="2"/>
<circle cx="384.775" cy="206.515" r="9.36185" transform="rotate(90 384.775 206.515)" stroke="#001048" stroke-width="2"/>
<circle cx="330.475" cy="142.854" r="9.36185" transform="rotate(90 330.475 142.854)" stroke="#001048" stroke-width="2"/>
<circle cx="290.362" cy="180.862" r="9.36185" transform="rotate(90 290.362 180.862)" stroke="#001048" stroke-width="2"/>
<circle cx="246.221" cy="142.854" r="9.36185" transform="rotate(90 246.221 142.854)" stroke="#001048" stroke-width="2"/>
<circle cx="182.56" cy="183.111" r="9.36185" transform="rotate(90 182.56 183.111)" stroke="#001048" stroke-width="2"/>
<path d="M190.791 144.171C192.299 144.599 192.299 146.723 190.791 147.151L187.617 148.051C185.189 148.74 183.749 151.219 184.363 153.652L185.166 156.834C185.547 158.346 183.696 159.409 182.569 158.324L180.197 156.043C178.383 154.298 175.503 154.298 173.69 156.043L171.318 158.324C170.191 159.409 168.34 158.346 168.721 156.834L169.524 153.652C170.137 151.219 168.697 148.74 166.27 148.051L163.096 147.151C161.587 146.723 161.587 144.599 163.096 144.171L166.27 143.271C168.697 142.582 170.137 140.103 169.524 137.67L168.721 134.488C168.34 132.976 170.191 131.913 171.318 132.998L173.69 135.279C175.503 137.025 178.383 137.025 180.197 135.279L182.569 132.998C183.696 131.913 185.547 132.976 185.166 134.488L184.363 137.67C183.749 140.103 185.189 142.582 187.617 143.271L190.791 144.171Z" stroke="#001048" stroke-width="2"/>
<path d="M245.092 185.366C246.6 185.794 246.6 187.918 245.092 188.346L241.918 189.246C239.49 189.935 238.05 192.414 238.664 194.847L239.467 198.029C239.848 199.541 237.996 200.604 236.869 199.519L234.498 197.238C232.684 195.493 229.804 195.493 227.99 197.238L225.619 199.519C224.492 200.604 222.64 199.541 223.022 198.029L223.824 194.847C224.438 192.414 222.998 189.935 220.571 189.246L217.397 188.346C215.888 187.918 215.888 185.794 217.397 185.366L220.571 184.466C222.998 183.777 224.438 181.299 223.824 178.865L223.022 175.683C222.64 174.171 224.492 173.108 225.619 174.193L227.99 176.474C229.804 178.22 232.684 178.22 234.498 176.474L236.869 174.193C237.996 173.108 239.848 174.171 239.467 175.683L238.664 178.865C238.05 181.299 239.49 183.777 241.918 184.466L245.092 185.366Z" stroke="#001048" stroke-width="2"/>
<path d="M68.1503 181.622C69.6588 182.05 69.6588 184.175 68.1503 184.602L64.9764 185.503C62.5487 186.191 61.1087 188.67 61.7226 191.103L62.5251 194.285C62.9065 195.798 61.0551 196.86 59.928 195.775L57.5566 193.494C55.7427 191.749 52.8628 191.749 51.0489 193.494L48.6775 195.775C47.5504 196.86 45.699 195.798 46.0804 194.285L46.8829 191.103C47.4968 188.67 46.0568 186.191 43.6291 185.503L40.4552 184.602C38.9467 184.175 38.9467 182.05 40.4552 181.622L43.6291 180.722C46.0568 180.033 47.4968 177.555 46.8829 175.121L46.0804 171.939C45.699 170.427 47.5504 169.365 48.6775 170.449L51.0489 172.731C52.8628 174.476 55.7427 174.476 57.5566 172.731L59.928 170.449C61.0551 169.365 62.9065 170.427 62.5251 171.939L61.7226 175.121C61.1087 177.555 62.5487 180.033 64.9764 180.722L68.1503 181.622Z" stroke="#001048" stroke-width="2"/>
<path d="M133.682 173.193C135.19 173.621 135.19 175.746 133.682 176.173L130.508 177.074C128.08 177.762 126.64 180.241 127.254 182.675L128.056 185.856C128.438 187.369 126.586 188.431 125.459 187.346L123.088 185.065C121.274 183.32 118.394 183.32 116.58 185.065L114.209 187.346C113.082 188.431 111.23 187.369 111.612 185.856L112.414 182.675C113.028 180.241 111.588 177.762 109.16 177.074L105.986 176.173C104.478 175.746 104.478 173.621 105.986 173.193L109.16 172.293C111.588 171.604 113.028 169.126 112.414 166.692L111.612 163.51C111.23 161.998 113.082 160.936 114.209 162.02L116.58 164.302C118.394 166.047 121.274 166.047 123.088 164.302L125.459 162.02C126.586 160.936 128.438 161.998 128.056 163.51L127.254 166.692C126.64 169.126 128.08 171.604 130.508 172.293L133.682 173.193Z" stroke="#001048" stroke-width="2"/>
<path d="M98.1033 141.365C99.6118 141.793 99.6118 143.917 98.1033 144.345L94.9294 145.245C92.5017 145.934 91.0617 148.412 91.6756 150.846L92.4781 154.028C92.8595 155.54 91.0081 156.603 89.881 155.518L87.5096 153.237C85.6957 151.491 82.8158 151.491 81.0019 153.237L78.6305 155.518C77.5034 156.603 75.652 155.54 76.0334 154.028L76.8359 150.846C77.4498 148.412 76.0098 145.934 73.5821 145.245L70.4082 144.345C68.8997 143.917 68.8997 141.793 70.4082 141.365L73.5821 140.465C76.0098 139.776 77.4498 137.297 76.8359 134.864L76.0334 131.682C75.652 130.17 77.5034 129.107 78.6305 130.192L81.0019 132.473C82.8158 134.218 85.6957 134.218 87.5096 132.473L89.881 130.192C91.0081 129.107 92.8595 130.17 92.4781 131.682L91.6756 134.864C91.0617 137.297 92.5017 139.776 94.9294 140.465L98.1033 141.365Z" stroke="#001048" stroke-width="2"/>
<mask id="mask0_59_127" style="mask-type:alpha" maskUnits="userSpaceOnUse" x="0" y="0" width="623" height="116">
<rect x="622.563" y="0.555176" width="115.151" height="622.563" transform="rotate(90 622.563 0.555176)" fill="#D9D9D9"/>
</mask>
<g mask="url(#mask0_59_127)">
<g filter="url(#filter0_ii_59_127)">
<path d="M512.585 204.749L590.874 166.061C632.589 145.447 632.589 85.9593 590.874 65.3454L512.585 26.6577C473.006 7.09925 428.995 -1.75205 384.933 0.98477L43.9107 22.1663C19.233 23.699 0.00321091 44.1602 0.00321091 68.8855V162.521C0.00321091 187.246 19.233 207.708 43.9107 209.24L384.933 230.422C428.995 233.159 473.006 224.307 512.585 204.749Z" fill="url(#paint0_linear_59_127)"/>
</g>
</g>
<defs>
<filter id="filter0_ii_59_127" x="0.00321198" y="-23.5015" width="622.157" height="258.41" filterUnits="userSpaceOnUse" color-interpolation-filters="sRGB">
<feFlood flood-opacity="0" result="BackgroundImageFix"/>
<feBlend mode="normal" in="SourceGraphic" in2="BackgroundImageFix" result="shape"/>
<feColorMatrix in="SourceAlpha" type="matrix" values="0 0 0 0 0 0 0 0 0 0 0 0 0 0 0 0 0 0 127 0" result="hardAlpha"/>
<feOffset dy="4"/>
<feGaussianBlur stdDeviation="17"/>
<feComposite in2="hardAlpha" operator="arithmetic" k2="-1" k3="1"/>
<feColorMatrix type="matrix" values="0 0 0 0 1 0 0 0 0 1 0 0 0 0 1 0 0 0 0.55 0"/>
<feBlend mode="normal" in2="shape" result="effect1_innerShadow_59_127"/>
<feColorMatrix in="SourceAlpha" type="matrix" values="0 0 0 0 0 0 0 0 0 0 0 0 0 0 0 0 0 0 127 0" result="hardAlpha"/>
<feOffset dy="-26"/>
<feGaussianBlur stdDeviation="12"/>
<feComposite in2="hardAlpha" operator="arithmetic" k2="-1" k3="1"/>
<feColorMatrix type="matrix" values="0 0 0 0 0 0 0 0 0 0 0 0 0 0 0 0 0 0 0.12 0"/>
<feBlend mode="normal" in2="effect1_innerShadow_59_127" result="effect2_innerShadow_59_127"/>
</filter>
<linearGradient id="paint0_linear_59_127" x1="374.009" y1="206.046" x2="374.009" y2="-128.64" gradientUnits="userSpaceOnUse">
<stop stop-color="#C6C6C6"/>
<stop offset="0.235" stop-color="#CECECE"/>
<stop offset="0.535" stop-color="white"/>
</linearGradient>
</defs>
</svg>
