<svg width="35.637817" height="35.637695" viewBox="0 0 35.6378 35.6377" fill="none" xmlns="http://www.w3.org/2000/svg" xmlns:xlink="http://www.w3.org/1999/xlink">
	<desc>
			Created with Pixso.
	</desc>
	<defs/>
	<circle id="Ellipse 32" cx="17.818909" cy="17.818848" r="17.818922" fill="#CAD1E2" fill-opacity="1.000000"/>
	<path id="Vector" d="M18.21 8.07C17.74 8.07 17.37 7.7 17.37 7.23L17.37 6.38C17.37 5.92 17.74 5.54 18.21 5.54C18.68 5.54 19.05 5.92 19.05 6.38L19.05 7.23C19.05 7.7 18.68 8.07 18.21 8.07Z" fill="#FFFFFF" fill-opacity="1.000000" fill-rule="nonzero"/>
	<path id="Vector" d="M18.21 30.88C17.74 30.88 17.37 30.5 17.37 30.04L17.37 29.19C17.37 28.72 17.74 28.35 18.21 28.35C18.68 28.35 19.05 28.72 19.05 29.19L19.05 30.04C19.05 30.5 18.68 30.88 18.21 30.88Z" fill="#FFFFFF" fill-opacity="1.000000" fill-rule="nonzero"/>
	<path id="Vector" d="M25.97 11.29C25.76 11.29 25.54 11.21 25.38 11.04C25.05 10.71 25.05 10.18 25.38 9.85L25.97 9.25C26.31 8.92 26.84 8.92 27.17 9.25C27.5 9.58 27.5 10.11 27.17 10.45L26.57 11.04C26.41 11.21 26.19 11.29 25.97 11.29Z" fill="#FFFFFF" fill-opacity="1.000000" fill-rule="nonzero"/>
	<path id="Vector" d="M9.85 27.42C9.63 27.42 9.42 27.33 9.25 27.17C8.92 26.84 8.92 26.31 9.25 25.98L9.85 25.38C10.18 25.05 10.71 25.05 11.04 25.38C11.37 25.71 11.37 26.24 11.04 26.57L10.44 27.17C10.28 27.34 10.06 27.42 9.85 27.42Z" fill="#FFFFFF" fill-opacity="1.000000" fill-rule="nonzero"/>
	<path id="Vector" d="M30.04 19.05L29.19 19.05C28.72 19.05 28.35 18.68 28.35 18.21C28.35 17.74 28.72 17.37 29.19 17.37L30.04 17.37C30.5 17.37 30.88 17.74 30.88 18.21C30.88 18.68 30.5 19.05 30.04 19.05Z" fill="#FFFFFF" fill-opacity="1.000000" fill-rule="nonzero"/>
	<path id="Vector" d="M26.57 27.42C26.36 27.42 26.14 27.33 25.97 27.17L25.38 26.57C25.05 26.24 25.05 25.71 25.38 25.38C25.71 25.05 26.24 25.05 26.57 25.38L27.17 25.98C27.5 26.31 27.5 26.84 27.17 27.17C27 27.34 26.79 27.42 26.57 27.42Z" fill="#FFFFFF" fill-opacity="1.000000" fill-rule="nonzero"/>
	<path id="Vector" d="M10.44 11.29C10.23 11.29 10.01 11.21 9.85 11.04L9.25 10.45C8.92 10.11 8.92 9.58 9.25 9.25C9.58 8.92 10.11 8.92 10.44 9.25L11.04 9.85C11.37 10.18 11.37 10.71 11.04 11.04C10.88 11.21 10.66 11.29 10.44 11.29Z" fill="#FFFFFF" fill-opacity="1.000000" fill-rule="nonzero"/>
	<path id="Vector" d="M18.21 9.76C13.55 9.76 9.76 13.55 9.76 18.21C9.76 22.87 13.55 26.66 18.21 26.66C22.87 26.66 26.66 22.87 26.66 18.21C26.66 13.55 22.87 9.76 18.21 9.76ZM21.23 21.06C21.62 21.31 21.83 21.77 21.75 22.22C21.67 22.68 21.33 23.04 20.88 23.15C20.51 23.23 20.12 23.28 19.72 23.28C19.6 23.28 19.47 23.27 19.34 23.26C16.83 23.08 14.78 20.96 14.66 18.45C14.6 17.05 15.09 15.72 16.06 14.71C17.29 13.42 19.14 12.87 20.88 13.28C21.33 13.38 21.67 13.74 21.75 14.2C21.83 14.66 21.62 15.11 21.23 15.36C20.25 15.98 19.66 17.05 19.66 18.21C19.66 19.37 20.25 20.44 21.23 21.06Z" fill="#FFFFFF" fill-opacity="1.000000" fill-rule="nonzero"/>
	<path id="Vector" d="M7.23 17.37L6.38 17.37C5.92 17.37 5.54 17.74 5.54 18.21C5.54 18.68 5.92 19.05 6.38 19.05L7.23 19.05C7.69 19.05 8.07 18.68 8.07 18.21C8.07 17.74 7.69 17.37 7.23 17.37Z" fill="#FFFFFF" fill-opacity="1.000000" fill-rule="nonzero"/>
</svg>
