<svg width="36" height="37" viewBox="0 0 36 37" fill="none" xmlns="http://www.w3.org/2000/svg">
<circle cx="17.9602" cy="18.4693" r="17.8189" fill="#CAD1E2"/>
<path d="M29.8619 18.3268L27.3715 20.8611C26.8735 21.3679 26.1263 21.3679 25.6282 20.8611L23.1378 18.3268C22.6397 17.82 22.6397 17.0597 23.1378 16.5529C23.6359 16.046 24.383 16.046 24.8811 16.5529L25.0056 16.6796C24.0095 13.385 21.1455 11.1042 17.7834 11.1042C15.7911 11.1042 13.9233 11.8645 12.5536 13.2583C12.0555 13.7652 11.3084 13.7652 10.8103 13.2583C10.3122 12.7515 10.3122 11.9912 10.8103 11.4844C12.6781 9.58368 15.1685 8.56998 17.7834 8.56998C22.7643 8.56998 26.8734 12.2446 27.6206 17.0597L28.1187 16.5529C28.3677 16.2994 28.7413 16.1727 28.9903 16.1727C29.2393 16.1727 29.6129 16.2994 29.8619 16.5529C30.36 17.0597 30.36 17.82 29.8619 18.3268Z" fill="white"/>
<path d="M24.3182 26.2463C22.4504 28.1469 19.96 29.1606 17.3451 29.1606C12.3643 29.1606 8.25507 25.486 7.50794 20.6709L7.00986 21.1778C6.51178 21.6846 5.76465 21.6846 5.26657 21.1778C4.76848 20.6709 4.76848 19.9106 5.26657 19.4038L7.75698 16.8695C8.00602 16.6161 8.25507 16.4894 8.62863 16.4894C9.00219 16.4894 9.25123 16.6161 9.50027 16.8695L11.9907 19.4038C12.4888 19.9106 12.4888 20.6709 11.9907 21.1778C11.4926 21.6846 10.7455 21.6846 10.2474 21.1778L10.1229 21.0511C11.119 24.3456 13.983 26.6264 17.3451 26.6264C19.3374 26.6264 21.2052 25.8661 22.575 24.4723C23.073 23.9654 23.8202 23.9654 24.3182 24.4723C24.8163 24.9791 24.8163 25.7394 24.3182 26.2463Z" fill="white"/>
</svg>
